<svg width="115" height="88" viewBox="0 0 115 88" fill="none" xmlns="http://www.w3.org/2000/svg">
  <path d="M56.87 13.41L69.42 0.880005L97.64 29.09H72.75L56.87 13.41Z" fill="black"/>
  <path d="M56.92 13.41L44.38 0.880005L16.15 29.09H41.04L56.92 13.41Z" fill="black"/>
  <path d="M100.48 35.88V68.08H114.11V64.33H104.33V53.79H113.04V50.04H104.33V39.63H114.11V35.88H100.48Z" fill="black"/>
  <path d="M43.59 50.51L40.45 49.03C38.31 48 37.87 47.16 37.87 44.01C37.87 42.34 38.19 41.09 38.82 40.29C39.31 39.68 39.99 39.37 40.83 39.37C41.77 39.37 42.49 39.71 42.95 40.37C43.65 41.34 43.79 42.54 43.79 44.14V44.29H47.51V44.14C47.51 40.91 46.97 38.99 45.63 37.51C44.49 36.26 42.88 35.62 40.87 35.62C39.05 35.62 37.47 36.27 36.3 37.51C34.89 38.99 34.14 41.28 34.14 44.15C34.14 48.96 35.05 50.86 38.04 52.25L41.22 53.73C43.4 54.76 43.87 55.78 43.87 59.46C43.87 61.5 43.74 62.7 43 63.63C42.47 64.28 41.74 64.59 40.75 64.59C39.83 64.59 39.06 64.26 38.58 63.67C37.9 62.85 37.72 61.72 37.72 59.49L37.67 59.44H33.95V61.87C33.95 63.57 34.43 64.93 35.71 66.4C36.86 67.72 38.56 68.39 40.75 68.39C42.89 68.39 44.65 67.7 45.83 66.41C47.1 64.96 47.59 62.99 47.59 59.37C47.6 54.63 47 52.09 43.59 50.51Z" fill="black"/>
  <path d="M4.37003 64.33V35.89H0.52002V68.08H14.16V64.33H4.37003Z" fill="black"/>
  <path d="M88.01 64.33V35.89H84.16V68.08H97.79V64.33H88.01Z" fill="black"/>
  <path d="M71.86 64.33V35.89H68.01V68.08H81.65V64.33H71.86Z" fill="black"/>
  <path d="M65.38 67.9L58.88 36.01L58.85 35.89H55.35L55.33 36.01L48.79 67.9L48.75 68.08H52.59L52.61 67.96L53.93 60.56H60.19L61.51 67.96L61.53 68.08H65.41L65.38 67.9ZM54.27 57.1L54.3 56.92L57.08 41.45L59.82 56.92L59.85 57.1H54.27Z" fill="black"/>
  <path d="M32.93 67.9L26.43 36.01L26.41 35.89H22.91L22.89 36.01L16.35 67.9L16.31 68.08H20.15L20.17 67.96L21.49 60.56H27.75L29.07 67.96L29.09 68.08H32.97L32.93 67.9ZM21.82 57.1L21.85 56.92L24.63 41.45L27.37 56.92L27.4 57.1H21.82Z" fill="black"/>
  <path d="M5.29999 86.37C4.81999 86.81 4.25 87.03 3.44 87.03C2.47 87.03 1.83 86.68 1.38 86.17C0.550005 85.26 0.5 83.89 0.5 80.88C0.5 77.87 0.550005 76.5 1.38 75.58C1.84 75.07 2.48 74.72 3.44 74.72C4.27 74.72 4.88001 74.97 5.35001 75.43C5.91001 75.97 6.19999 76.83 6.20999 77.83H4.75C4.75 77.31 4.65 76.78 4.38 76.44C4.18 76.19 3.88999 76.02 3.42999 76.02C2.95999 76.02 2.65001 76.21 2.45001 76.48C2.03001 77.06 1.94 78.02 1.94 80.88C1.94 83.74 2.02001 84.7 2.45001 85.28C2.65001 85.55 2.95999 85.74 3.42999 85.74C3.88999 85.74 4.18 85.56 4.38 85.3C4.65 84.96 4.76999 84.46 4.76999 83.93H6.23001C6.22001 84.94 5.89999 85.83 5.29999 86.37Z" fill="black"/>
  <path d="M12.6 86.17C12.14 86.68 11.48 87.03 10.52 87.03C9.55999 87.03 8.91001 86.68 8.45001 86.17C7.62001 85.26 7.57001 83.89 7.57001 80.88C7.57001 77.87 7.62001 76.5 8.45001 75.58C8.91001 75.07 9.54999 74.72 10.52 74.72C11.48 74.72 12.14 75.08 12.6 75.58C13.43 76.49 13.46 77.86 13.46 80.88C13.46 83.89 13.43 85.26 12.6 86.17ZM11.5 76.48C11.3 76.21 10.99 76.02 10.52 76.02C10.05 76.02 9.74001 76.21 9.54001 76.48C9.12001 77.06 9.03 78.02 9.03 80.88C9.03 83.74 9.11001 84.7 9.54001 85.28C9.74001 85.55 10.05 85.74 10.52 85.74C10.99 85.74 11.3 85.56 11.5 85.28C11.92 84.71 12 83.74 12 80.88C12 78.02 11.92 77.05 11.5 76.48Z" fill="black"/>
  <path d="M15.08 86.9V74.85H16.53V85.6H19.73V86.9H15.08Z" fill="black"/>
  <path d="M21.12 86.9V74.85H22.58V85.6H25.77V86.9H21.12Z" fill="black"/>
  <path d="M27.17 86.9V74.85H31.82V76.16H28.62V80.2H31.38V81.5H28.62V85.6H31.82V86.9H27.17Z" fill="black"/>
  <path d="M36.15 87.03C35.19 87.03 34.54 86.68 34.09 86.17C33.26 85.26 33.21 83.89 33.21 80.88C33.21 77.87 33.26 76.5 34.09 75.58C34.54 75.07 35.19 74.72 36.15 74.72C37 74.72 37.64 75.01 38.1 75.46C38.66 76.04 38.93 76.87 38.95 77.85H37.5C37.5 77.04 37.28 76.02 36.16 76.02C35.69 76.02 35.39 76.21 35.18 76.48C34.75 77.06 34.67 78.02 34.67 80.88C34.67 83.74 34.75 84.7 35.18 85.28C35.39 85.55 35.69 85.74 36.16 85.74C37.01 85.74 37.5 85.05 37.5 84.07V81.67H36.16V80.45H38.96V84.02C38.95 86 37.73 87.03 36.15 87.03Z" fill="black"/>
  <path d="M40.5 86.9V74.85H45.15V76.16H41.95V80.2H44.71V81.5H41.95V85.6H45.15V86.9H40.5Z" fill="black"/>
  <path d="M54.14 86.17C53.68 86.68 53.02 87.03 52.06 87.03C51.09 87.03 50.45 86.68 49.99 86.17C49.16 85.26 49.11 83.89 49.11 80.88C49.11 77.87 49.16 76.5 49.99 75.58C50.45 75.07 51.09 74.72 52.06 74.72C53.02 74.72 53.68 75.08 54.14 75.58C54.97 76.49 55 77.86 55 80.88C55 83.89 54.97 85.26 54.14 86.17ZM53.03 76.48C52.83 76.21 52.53 76.02 52.05 76.02C51.57 76.02 51.27 76.21 51.06 76.48C50.64 77.06 50.55 78.02 50.55 80.88C50.55 83.74 50.64 84.7 51.06 85.28C51.26 85.55 51.57 85.74 52.05 85.74C52.52 85.74 52.83 85.56 53.03 85.28C53.46 84.71 53.54 83.74 53.54 80.88C53.54 78.02 53.46 77.05 53.03 76.48Z" fill="black"/>
  <path d="M58.07 76.16V80.2H60.83V81.5H58.07V86.9H56.61V74.85H61.27V76.16H58.07Z" fill="black"/>
  <path d="M68.11 76.16V86.9H66.65V76.16H64.63V74.85H70.13V76.16H68.11Z" fill="black"/>
  <path d="M75.34 86.9V81.43H72.67V86.9H71.21V74.85H72.67V80.12H75.34V74.85H76.8V86.9H75.34Z" fill="black"/>
  <path d="M78.52 86.9V74.85H83.18V76.16H79.98V80.2H82.74V81.5H79.98V85.6H83.18V86.9H78.52Z" fill="black"/>
  <path d="M92.55 86.9L91.9799 84.06H89.18L88.61 86.9H87.09L89.9 74.86H91.31L94.0999 86.9H92.55ZM90.59 77.2L89.46 82.75H91.71L90.59 77.2Z" fill="black"/>
  <path d="M99.74 86.9L98.08 81.72H96.76V86.9H95.3V74.86H98.02C99.85 74.86 100.86 75.66 100.86 78.29C100.86 79.97 100.46 80.95 99.41 81.44L101.25 86.9H99.74ZM98.05 76.16H96.76V80.44H98.05C99.16 80.44 99.42 79.58 99.42 78.29C99.42 77.02 99.16 76.16 98.05 76.16Z" fill="black"/>
  <path d="M105.43 76.16V86.9H103.97V76.16H101.94V74.85H107.44V76.16H105.43Z" fill="black"/>
  <path d="M113.11 86.29C112.65 86.73 111.94 87.02 110.98 87.02C110.05 87.02 109.33 86.77 108.87 86.29C108.31 85.73 108.12 85.04 108.12 83.75H109.57C109.57 84.54 109.66 84.99 109.98 85.32C110.18 85.54 110.52 85.69 110.98 85.69C111.47 85.69 111.79 85.54 112.01 85.3C112.33 84.94 112.4 84.49 112.4 83.69C112.4 82.3 112.19 81.88 111.21 81.47L109.84 80.91C108.6 80.4 108.19 79.73 108.19 77.9C108.19 76.85 108.5 75.99 109.1 75.43C109.58 74.99 110.22 74.74 111.01 74.74C111.89 74.74 112.55 75 113.01 75.43C113.62 76.02 113.8 76.8 113.8 77.9H112.35C112.35 77.26 112.28 76.82 111.97 76.45C111.77 76.2 111.45 76.05 110.99 76.05C110.57 76.05 110.26 76.2 110.06 76.42C109.77 76.74 109.64 77.23 109.64 77.86C109.64 79.04 109.83 79.4 110.79 79.8L112.14 80.36C113.51 80.92 113.83 81.76 113.83 83.66C113.86 84.92 113.69 85.71 113.11 86.29Z" fill="black"/>
  </svg>
  