<svg width="153" height="58" viewBox="0 0 153 58" fill="none" xmlns="http://www.w3.org/2000/svg">
  <path d="M5.28003 55.52H5.26001L2.34003 48.5H0.909973V55.6H1.69L1.65997 48.57H1.67999L4.62 55.6H6.02002V48.5H5.26001L5.28003 55.52Z" fill="white"/>
  <path d="M11.08 52.4H11.06C11.06 51.36 10.41 50.75 9.34003 50.75C8.10003 50.75 7.37 51.67 7.37 53.22C7.37 54.77 8.10003 55.7 9.34003 55.7C10.41 55.7 11.06 55.08 11.06 54.04H11.08V55.6H11.85V50.85H11.08V52.4ZM9.65002 55.04C8.71002 55.04 8.16998 54.37 8.16998 53.22C8.16998 52.08 8.71002 51.4 9.65002 51.4C10.6 51.4 11.14 52.1 11.14 53.22C11.14 54.34 10.59 55.04 9.65002 55.04Z" fill="white"/>
  <path d="M15.67 50.75C14.68 50.75 14.09 51.39 14.09 52.48H14.07V50.85H13.3V55.6H14.07V53C14.07 51.99 14.56 51.4 15.39 51.4C16.14 51.4 16.57 51.87 16.57 52.67V55.61H17.34V52.66C17.35 51.45 16.73 50.75 15.67 50.75Z" fill="white"/>
  <path d="M20.44 55.54H20.42L19.02 50.85H18.2L19.69 55.6H20.35L19.64 57.8H20.47L22.66 50.85H21.84L20.44 55.54Z" fill="white"/>
  <path d="M26.97 52.4H26.95C26.95 51.36 26.3 50.75 25.23 50.75C23.99 50.75 23.26 51.67 23.26 53.22C23.26 54.77 23.99 55.7 25.23 55.7C26.3 55.7 26.95 55.08 26.95 54.04H26.97V55.6H27.74V50.85H26.97V52.4ZM25.54 55.04C24.6 55.04 24.06 54.37 24.06 53.22C24.06 52.08 24.6 51.4 25.54 51.4C26.49 51.4 27.03 52.1 27.03 53.22C27.03 54.34 26.48 55.04 25.54 55.04Z" fill="white"/>
  <path d="M31.56 50.75C30.57 50.75 29.98 51.39 29.98 52.48H29.96V50.85H29.19V55.6H29.96V53C29.96 51.99 30.45 51.4 31.28 51.4C32.03 51.4 32.46 51.87 32.46 52.67V55.61H33.23V52.66C33.24 51.45 32.62 50.75 31.56 50.75Z" fill="white"/>
  <path d="M38.09 52.4H38.07C38.07 51.36 37.42 50.75 36.35 50.75C35.11 50.75 34.38 51.66 34.38 53.21C34.38 54.75 35.11 55.68 36.35 55.68C37.42 55.68 38.07 55.06 38.07 54.02H38.09V55.77C38.09 56.71 37.56 57.27 36.64 57.27C35.81 57.27 35.29 56.82 35.23 56.07L34.5 56.15C34.59 57.25 35.39 57.91 36.64 57.91C38.03 57.91 38.85 57.09 38.85 55.71V50.86H38.08V52.4H38.09ZM36.66 55.02C35.72 55.02 35.18 54.35 35.18 53.21C35.18 52.07 35.72 51.4 36.66 51.4C37.61 51.4 38.15 52.1 38.15 53.21C38.15 54.32 37.6 55.02 36.66 55.02Z" fill="white"/>
  <path d="M44.07 48.5L41.69 55.6H42.52L43.1 53.78H46.42L47 55.6H47.87L45.5 48.5H44.07ZM43.31 53.1L44.76 48.57H44.78L46.22 53.1H43.31Z" fill="white"/>
  <path d="M50.7 55.04C49.78 55.04 49.24 54.37 49.24 53.22C49.24 52.08 49.78 51.4 50.7 51.4C51.39 51.4 51.85 51.77 52.06 52.43H52.83C52.6 51.37 51.84 50.76 50.7 50.76C49.29 50.76 48.45 51.68 48.45 53.23C48.45 54.78 49.29 55.71 50.7 55.71C51.88 55.71 52.65 55.06 52.86 53.94H52.09C51.91 54.63 51.42 55.04 50.7 55.04Z" fill="white"/>
  <path d="M57.37 52.4H57.35C57.35 51.36 56.7 50.75 55.63 50.75C54.39 50.75 53.66 51.67 53.66 53.22C53.66 54.77 54.39 55.7 55.63 55.7C56.7 55.7 57.35 55.08 57.35 54.04H57.37V55.6H58.14V50.85H57.37V52.4ZM55.93 55.04C54.99 55.04 54.45 54.37 54.45 53.22C54.45 52.08 54.99 51.4 55.93 51.4C56.88 51.4 57.42 52.1 57.42 53.22C57.43 54.34 56.88 55.04 55.93 55.04Z" fill="white"/>
  <path d="M63.03 52.4H63.01C63.01 51.36 62.36 50.75 61.29 50.75C60.05 50.75 59.32 51.67 59.32 53.22C59.32 54.77 60.05 55.7 61.29 55.7C62.36 55.7 63.01 55.08 63.01 54.04H63.03V55.6H63.8V48.21H63.03V52.4ZM61.59 55.04C60.65 55.04 60.11 54.37 60.11 53.22C60.11 52.08 60.65 51.4 61.59 51.4C62.54 51.4 63.08 52.1 63.08 53.22C63.09 54.34 62.54 55.04 61.59 55.04Z" fill="white"/>
  <path d="M67.13 50.75C65.78 50.75 64.97 51.66 64.97 53.22C64.97 54.77 65.78 55.69 67.13 55.69C68.33 55.69 69.13 55.04 69.28 53.92H68.52C68.4 54.63 67.88 55.06 67.13 55.06C66.29 55.06 65.77 54.43 65.73 53.33H69.28V53.21C69.28 51.66 68.48 50.75 67.13 50.75ZM65.74 52.95C65.82 51.95 66.33 51.38 67.13 51.38C67.93 51.38 68.43 51.96 68.51 52.95H65.74Z" fill="white"/>
  <path d="M75.96 50.75C74.99 50.75 74.42 51.37 74.42 52.44H74.4C74.4 51.42 73.81 50.75 72.79 50.75C71.81 50.75 71.24 51.37 71.24 52.44H71.22V50.85H70.45V55.6H71.22V52.95C71.22 51.97 71.69 51.4 72.5 51.4C73.22 51.4 73.64 51.85 73.64 52.62V55.6H74.41V52.95C74.41 51.97 74.89 51.4 75.7 51.4C76.41 51.4 76.84 51.85 76.84 52.62V55.6H77.61V52.6C77.59 51.43 76.99 50.75 75.96 50.75Z" fill="white"/>
  <path d="M80.69 55.54H80.67L79.27 50.85H78.45L79.94 55.6H80.6L79.89 57.8H80.72L82.92 50.85H82.09L80.69 55.54Z" fill="white"/>
  <path d="M88.11 50.75C86.68 50.75 85.83 51.67 85.83 53.22C85.83 54.77 86.68 55.7 88.11 55.7C89.54 55.7 90.38 54.78 90.38 53.22C90.38 51.67 89.53 50.75 88.11 50.75ZM88.11 55.04C87.17 55.04 86.62 54.37 86.62 53.22C86.62 52.08 87.17 51.4 88.11 51.4C89.05 51.4 89.6 52.08 89.6 53.22C89.6 54.37 89.04 55.04 88.11 55.04Z" fill="white"/>
  <path d="M91.71 49.6C91.71 50.13 91.71 50.85 91.71 50.85H91.02V51.44H91.77V55.6H92.54V51.44H94.13V50.85H92.49V49.78C92.49 49.15 92.85 48.77 93.53 48.77C93.78 48.77 94 48.82 94.2 48.93L94.3 48.32C94.04 48.19 93.72 48.12 93.37 48.12C92.33 48.11 91.71 48.66 91.71 49.6Z" fill="white"/>
  <path d="M97.15 55.6H97.95V52.33H100.84V51.66H97.95V49.17H101.33V48.5H97.15V55.6Z" fill="white"/>
  <path d="M103.06 48.79H102.29V49.8H103.06V48.79Z" fill="white"/>
  <path d="M103.06 50.85H102.29V55.6H103.06V50.85Z" fill="white"/>
  <path d="M106.88 50.75C105.89 50.75 105.3 51.39 105.3 52.48H105.28V50.85H104.51V55.6H105.28V53C105.28 51.99 105.77 51.4 106.6 51.4C107.35 51.4 107.78 51.87 107.78 52.67V55.61H108.55V52.66C108.56 51.45 107.94 50.75 106.88 50.75Z" fill="white"/>
  <path d="M111.85 50.75C110.5 50.75 109.69 51.66 109.69 53.22C109.69 54.77 110.5 55.69 111.85 55.69C113.05 55.69 113.85 55.04 114 53.92H113.24C113.12 54.63 112.6 55.06 111.85 55.06C111.01 55.06 110.49 54.43 110.45 53.33H114V53.21C114 51.66 113.2 50.75 111.85 50.75ZM110.46 52.95C110.54 51.95 111.05 51.38 111.85 51.38C112.65 51.38 113.15 51.96 113.23 52.95H110.46Z" fill="white"/>
  <path d="M118.92 48.5L116.54 55.6H117.37L117.95 53.78H121.27L121.85 55.6H122.72L120.35 48.5H118.92ZM118.16 53.1L119.61 48.57H119.63L121.07 53.1H118.16Z" fill="white"/>
  <path d="M124.36 52.65H124.34V50.85H123.57V55.6H124.34V53.27C124.34 52.14 124.84 51.48 125.68 51.48C125.93 51.48 126.19 51.54 126.36 51.64L126.59 50.9C126.4 50.8 126.14 50.76 125.87 50.76C124.92 50.75 124.36 51.45 124.36 52.65Z" fill="white"/>
  <path d="M128.48 49.2H127.71V50.85H126.9V51.44H127.65V54.26C127.65 55.17 128.16 55.7 129.02 55.7C129.35 55.7 129.69 55.62 129.93 55.51V54.9C129.74 55 129.5 55.05 129.26 55.05C128.73 55.05 128.42 54.74 128.42 54.22V51.45H130.01V50.86H128.48V49.2ZM127.75 50.83C127.75 50.84 127.75 50.84 127.76 50.85H127.75V50.83Z" fill="white"/>
  <path d="M132.74 52.82C132.08 52.7 131.49 52.59 131.49 52.05C131.49 51.57 131.89 51.29 132.57 51.29C133.26 51.29 133.66 51.66 133.66 52.32H134.4C134.4 51.32 133.72 50.75 132.57 50.75C131.43 50.75 130.74 51.27 130.74 52.1C130.74 53.1 131.63 53.26 132.44 53.4C133.13 53.53 133.79 53.65 133.79 54.31C133.79 54.82 133.34 55.13 132.57 55.13C131.79 55.13 131.34 54.74 131.34 54.06H130.6C130.6 55.09 131.33 55.69 132.57 55.69C133.81 55.69 134.54 55.15 134.54 54.25C134.54 53.16 133.58 52.98 132.74 52.82Z" fill="white"/>
  <path d="M82.07 7.57001H100.21V0.980011H74.36V41.33H82.07V24.27H97.54V17.68H82.07V7.57001Z" fill="white"/>
  <path d="M24.75 1.47L24.76 3.64001V32.8L12.11 0.980011H0.909973V41.33H8.42999L8.34998 27.03V9.63L21.01 41.33H32.16V0.980011H24.74L24.75 1.47Z" fill="white"/>
  <path d="M152.01 8.01001C151.83 7.68001 151.65 7.49 151.63 7.47C150.8 6.56 149.92 5.68 148.98 4.87C148.9 4.8 148.83 4.73999 148.76 4.67999C148.04 3.99999 146.92 3.10001 145.45 2.35001C143.97 1.60001 142.14 1.01999 140.01 1.01999C138.4 1.01999 136.62 1.35 134.73 2.19C132.87 3.01 131.03 4.40999 129.22 6.35999C127.41 8.29999 125.62 10.8 123.86 13.82C123.52 14.4 123.2 14.97 122.9 15.53C120.67 19.58 117.59 25.44 114.54 30.28C113.02 32.7 111.5 34.86 110.12 36.4C109.43 37.17 108.78 37.78 108.19 38.18C107.6 38.59 107.09 38.77 106.7 38.77C106.65 38.77 106.6 38.77 106.55 38.76C106.23 38.72 105.98 38.62 105.76 38.46C105.44 38.23 105.19 37.85 105.02 37.36C104.85 36.87 104.77 36.27 104.77 35.63C104.77 35.28 104.8 34.91 104.84 34.55C104.94 33.81 105.23 32.85 105.65 31.72C106.06 30.59 106.6 29.27 107.15 27.78L114.31 8.5L118.16 19.15L123.29 11.99L119.41 0.970001H109.23L100.92 23.16C100.12 25.31 99.34 27.15 98.76 28.87C98.18 30.59 97.79 32.19 97.79 33.83C97.79 35.02 98 36.23 98.47 37.51C98.5 37.6 98.7 38.2 99.26 38.97C99.84 39.77 100.82 40.74 102.35 41.41C103.53 41.92 104.81 42.09 106.05 42.09C106.09 42.09 106.13 42.09 106.17 42.09H106.18C107.26 42.08 108.36 41.9 109.39 41.45C110.99 40.75 112.23 39.48 113.23 38.14C114.03 37.08 114.7 35.96 115.42 34.91C115.57 34.69 115.77 34.46 115.96 34.16C116.11 33.91 116.24 33.67 116.38 33.45C117.02 32.43 117.64 31.4 118.24 30.37C118.89 29.25 119.53 28.11 120.16 26.97C120.37 26.59 120.57 26.21 120.77 25.83L126.6 41.32H134.54L133.82 39.4L125.1 16.17C126.36 13.9 127.91 11.41 129.67 9.25C131.48 7.03 133.52 5.16999 135.63 4.23999C137.26 3.51999 138.74 3.23999 140.07 3.23999C141.54 3.23999 142.83 3.58 143.93 4.06C146.09 5 147.67 6.93999 147.98 9.23999C148 9.35999 148.01 9.47 148.02 9.59C148.02 9.65 148.03 9.71001 148.04 9.76001C148.12 10.41 148.41 11.05 148.97 11.48C149.24 11.69 149.61 11.87 150.05 11.87C150.28 11.87 150.53 11.82 150.77 11.71C151.01 11.6 151.25 11.44 151.49 11.22C151.81 10.92 152.04 10.6 152.18 10.28C152.32 9.96 152.38 9.62999 152.38 9.32999C152.38 8.79999 152.19 8.34001 152.01 8.01001Z" fill="white"/>
  <path d="M58.94 0.980011H47.58L34.56 41.32H42.69L46.23 29.83H60.28L63.82 41.32H71.95L58.94 0.980011ZM48.16 23.34L53.25 8.57001L58.34 23.34H48.16Z" fill="white"/>
  </svg>
  